<svg width="78" height="16" fill="none" xmlns="http://www.w3.org/2000/svg"><path d="M15.581 6.3h-5.73L8.076.75 6.3 6.3H.569l4.629 3.425-1.751 5.525 4.628-3.425 4.629 3.425-1.777-5.55 4.654-3.4zm15.512 0h-5.73L23.587.75 21.811 6.3h-5.73l4.629 3.425-1.752 5.525 4.63-3.425 4.628 3.425-1.777-5.55 4.654-3.4zm15.512 0h-5.73L39.1.75 37.323 6.3h-5.73l4.629 3.425-1.752 5.525 4.629-3.425 4.628 3.425-1.776-5.55 4.654-3.4zm15.512 0h-5.73L54.611.75 52.835 6.3h-5.73l4.629 3.425-1.752 5.525 4.629-3.425 4.628 3.425-1.776-5.55 4.654-3.4zm15.511 0H71.9L70.123.75 68.346 6.3h-5.73l4.63 3.425-1.752 5.525 4.629-3.425 4.628 3.425-1.776-5.55 4.653-3.4z" fill="#FF352B"/></svg>