<svg width="78" height="16" viewBox="0 0 78 16" fill="none" xmlns="http://www.w3.org/2000/svg">
<path d="M15.581 6.3H9.85157L8.07521 0.75L6.29885 6.3H0.569458L5.198 9.725L3.44666 15.25L8.07521 11.825L12.7038 15.25L10.9274 9.7L15.581 6.3Z" fill="#FF352B"/>
<path d="M31.0928 6.3H25.3634L23.5871 0.75L21.8107 6.3H16.0813L20.7098 9.725L18.9585 15.25L23.5871 11.825L28.2156 15.25L26.4392 9.7L31.0928 6.3Z" fill="#FF352B"/>
<path d="M46.6046 6.3H40.8753L39.0989 0.75L37.3225 6.3H31.5931L36.2217 9.725L34.4703 15.25L39.0989 11.825L43.7274 15.25L41.9511 9.7L46.6046 6.3Z" fill="#FF352B"/>
<path d="M62.1166 6.3H56.3872L54.6109 0.75L52.8345 6.3H47.1051L51.7336 9.725L49.9823 15.25L54.6109 11.825L59.2394 15.25L57.463 9.7L62.1166 6.3Z" fill="#FF352B"/>
<path d="M77.6284 6.3H71.8991L70.1227 0.75L68.3463 6.3H62.6169L67.2455 9.725L65.4941 15.25L70.1227 11.825L74.7512 15.25L72.9749 9.7L77.6284 6.3Z" fill="#FF352B"/>
</svg>
